<?xml version="1.0" encoding="UTF-8"?>
<!DOCTYPE svg PUBLIC "-//W3C//DTD SVG 1.1//EN" "http://www.w3.org/Graphics/SVG/1.1/DTD/svg11.dtd">
<!-- Creator: CorelDRAW 2020 (64-Bit) -->
<svg xmlns="http://www.w3.org/2000/svg" xml:space="preserve" width="54px" height="54px" version="1.1" style="shape-rendering:geometricPrecision; text-rendering:geometricPrecision; image-rendering:optimizeQuality; fill-rule:evenodd; clip-rule:evenodd"
viewBox="0 0 54 54"
 xmlns:xlink="http://www.w3.org/1999/xlink"
 xmlns:xodm="http://www.corel.com/coreldraw/odm/2003">
 <defs>
  <style type="text/css">
   <![CDATA[
    .fil1 {fill:#7D97F4}
    .fil0 {fill:#7D97F4;fill-rule:nonzero}
   ]]>
  </style>
 </defs>
 <g id="Слой_x0020_1">
  <metadata id="CorelCorpID_0Corel-Layer"/>
  <path class="fil0" d="M33.44 34.04l-1.18 -1.12 1.18 1.12zm0.99 -1.04l1.18 1.12 0 0 -1.18 -1.12zm5.24 -0.73l-0.81 1.41 0 0 0.81 -1.41zm4.15 2.39l-0.81 1.41 0.81 -1.41zm1.17 7.47l1.17 1.13 -1.17 -1.13zm-3.09 3.25l-1.18 -1.12 1.18 1.12zm-2.87 1.54l0.16 1.62 -0.16 -1.62zm-21.39 -9.74l1.18 -1.12 -1.18 1.12zm-10.44 -20.62l-1.62 0.08 0 0 1.62 -0.08zm14.05 3.33l1.18 1.12 0 0 -1.18 -1.12zm0.34 -6.09l1.33 -0.94 -1.33 0.94zm-2.74 -3.87l-1.33 0.94 0 0 1.33 -0.94zm-6.75 -0.66l1.18 1.12 -1.18 -1.12zm-3.4 3.59l-1.18 -1.12 0 0 1.18 1.12zm15.99 16.91l1.18 -1.12 -1.18 1.12zm9.93 5.39l0.99 -1.04 -2.36 -2.24 -0.99 1.04 2.36 2.24zm4.24 -1.48l4.15 2.39 1.62 -2.82 -4.14 -2.39 -1.63 2.82zm4.95 7.33l-3.09 3.25 2.36 2.24 3.08 -3.24 -2.35 -2.25zm-4.94 4.29c-3.11,0.31 -11.23,0.04 -20.05,-9.24l-2.36 2.24c9.61,10.12 18.77,10.63 22.73,10.24l-0.32 -3.24zm-20.05 -9.24c-8.41,-8.85 -9.82,-16.32 -9.99,-19.59l-3.25 0.17c0.21,4.01 1.92,12.22 10.88,21.66l2.36 -2.24zm2.98 -14.39l0.63 -0.66 -2.36 -2.24 -0.62 0.66 2.35 2.24zm1.12 -8.81l-2.74 -3.87 -2.66 1.88 2.74 3.86 2.66 -1.87zm-12 -4.71l-3.4 3.59 2.36 2.24 3.4 -3.59 -2.36 -2.24zm9.7 12.4c-1.17,-1.12 -1.18,-1.12 -1.18,-1.12 0,0 0,0 0,0 0,0 0,0.01 -0.01,0.01 0,0 -0.01,0.01 -0.01,0.01 -0.01,0.01 -0.02,0.02 -0.03,0.04 -0.02,0.02 -0.04,0.05 -0.07,0.08 -0.04,0.06 -0.1,0.13 -0.15,0.22 -0.12,0.18 -0.24,0.41 -0.34,0.7 -0.22,0.6 -0.33,1.39 -0.19,2.37 0.29,1.94 1.55,4.54 4.87,8.03l2.36 -2.24c-3.1,-3.26 -3.86,-5.27 -4.01,-6.26 -0.07,-0.48 0,-0.73 0.03,-0.81 0.02,-0.04 0.03,-0.05 0.02,-0.04 -0.01,0.01 -0.02,0.02 -0.03,0.04 -0.01,0.01 -0.02,0.03 -0.03,0.04 -0.01,0.01 -0.02,0.01 -0.02,0.02 -0.01,0.01 -0.01,0.01 -0.01,0.01 -0.01,0.01 -0.01,0.01 -0.01,0.01 0,0 0,0 0,0 0,0 -0.01,0.01 -1.19,-1.11zm2.89 10.34c3.3,3.47 5.79,4.84 7.7,5.15 0.97,0.16 1.77,0.03 2.36,-0.2 0.3,-0.12 0.53,-0.26 0.7,-0.38 0.09,-0.06 0.16,-0.12 0.22,-0.17 0.03,-0.02 0.05,-0.05 0.08,-0.07 0.01,-0.01 0.02,-0.02 0.03,-0.03 0,-0.01 0.01,-0.01 0.01,-0.02 0,0 0.01,0 0.01,0 0,0 0,0 0,0 0,-0.01 0,-0.01 -1.18,-1.13 -1.18,-1.12 -1.17,-1.12 -1.17,-1.12 0,0 0,0 0,-0.01 0,0 0,0 0.01,0 0,0 0,-0.01 0.01,-0.01 0,-0.01 0.01,-0.02 0.02,-0.02 0.01,-0.02 0.02,-0.03 0.03,-0.04 0.02,-0.01 0.04,-0.03 0.05,-0.03 0.02,-0.02 0.02,-0.01 -0.01,0 -0.04,0.02 -0.24,0.09 -0.65,0.02 -0.87,-0.14 -2.76,-0.91 -5.86,-4.18l-2.36 2.24zm-3.33 -21.9c-2.2,-3.11 -6.6,-3.64 -9.26,-0.84l2.36 2.24c1.14,-1.19 3.13,-1.1 4.24,0.48l2.66 -1.88zm-11.35 7.48c-0.05,-0.87 0.33,-1.73 1.05,-2.49l-2.36 -2.24c-1.16,1.22 -2.05,2.92 -1.94,4.9l3.25 -0.17zm31.89 27.79c-0.6,0.64 -1.23,0.98 -1.85,1.04l0.32 3.24c1.62,-0.16 2.93,-1.03 3.89,-2.04l-2.36 -2.24zm-18.29 -23.25c2.1,-2.21 2.24,-5.67 0.49,-8.15l-2.66 1.87c0.91,1.3 0.77,3.02 -0.19,4.04l2.36 2.24zm20.58 15.06c1.78,1.02 2.13,3.55 0.8,4.94l2.35 2.25c2.84,-2.98 2.01,-7.97 -1.53,-10.01l-1.62 2.82zm-7.4 -1.95c0.84,-0.88 2.14,-1.08 3.25,-0.44l1.63 -2.82c-2.39,-1.37 -5.34,-0.97 -7.24,1.02l2.36 2.24z"/>
  <path class="fil0" d="M29.45 5.53c0.14,-0.89 0.98,-1.49 1.87,-1.35 0.05,0.01 0.23,0.04 0.32,0.06 0.19,0.05 0.45,0.11 0.77,0.2 0.64,0.19 1.54,0.5 2.62,0.99 2.16,0.99 5.04,2.73 8.02,5.71 2.99,2.99 4.72,5.86 5.71,8.02 0.49,1.08 0.8,1.98 0.99,2.63 0.1,0.32 0.16,0.58 0.2,0.76 0.02,0.09 0.04,0.17 0.05,0.22l0.01 0.07c0.14,0.89 -0.45,1.76 -1.34,1.9 -0.89,0.15 -1.72,-0.45 -1.87,-1.33 0,-0.03 -0.01,-0.09 -0.03,-0.15 -0.02,-0.12 -0.07,-0.31 -0.14,-0.56 -0.15,-0.51 -0.4,-1.26 -0.83,-2.18 -0.84,-1.85 -2.36,-4.39 -5.05,-7.08 -2.68,-2.68 -5.23,-4.2 -7.07,-5.05 -0.93,-0.42 -1.68,-0.68 -2.18,-0.82 -0.25,-0.08 -0.57,-0.15 -0.69,-0.18 -0.88,-0.14 -1.5,-0.98 -1.36,-1.86z"/>
  <path class="fil1" d="M29.88 13.01c0.24,-0.87 1.14,-1.37 2.01,-1.12l-0.45 1.56c0.45,-1.56 0.45,-1.56 0.45,-1.56l0 0 0 0 0.01 0 0.02 0.01 0.04 0.01c0.03,0.01 0.07,0.03 0.12,0.04 0.1,0.04 0.23,0.09 0.39,0.15 0.31,0.14 0.75,0.35 1.28,0.66 1.06,0.63 2.51,1.68 4.21,3.38 1.7,1.7 2.75,3.15 3.37,4.21 0.32,0.53 0.53,0.96 0.66,1.28 0.07,0.16 0.12,0.29 0.15,0.38 0.02,0.05 0.03,0.09 0.04,0.13l0.02 0.04 0 0.02 0.01 0 0 0.01c0,0 0,0 -1.57,0.45l1.57 -0.45c0.24,0.86 -0.26,1.76 -1.12,2.01 -0.86,0.25 -1.75,-0.24 -2,-1.09l-0.01 -0.03c-0.01,-0.03 -0.04,-0.09 -0.08,-0.19 -0.08,-0.19 -0.22,-0.49 -0.47,-0.9 -0.48,-0.82 -1.35,-2.05 -2.87,-3.57 -1.52,-1.52 -2.75,-2.39 -3.57,-2.88 -0.41,-0.24 -0.72,-0.38 -0.9,-0.46 -0.1,-0.04 -0.16,-0.07 -0.2,-0.08l-0.02 -0.01c-0.85,-0.25 -1.34,-1.15 -1.09,-2z"/>
 </g>
</svg>
