<svg 
 xmlns="http://www.w3.org/2000/svg"
 xmlns:xlink="http://www.w3.org/1999/xlink"
 width="50px" height="50px">
<path fill-rule="evenodd"  fill="rgb(251, 36, 117)"
 d="M47.949,11.903 C47.788,12.065 47.568,12.155 47.340,12.155 C47.111,12.155 46.892,12.065 46.730,11.903 L43.198,8.380 L41.752,9.822 C45.787,13.999 48.275,19.673 48.275,25.917 C48.275,34.430 43.656,41.883 36.789,45.926 L39.400,48.531 C39.737,48.867 39.737,49.411 39.400,49.747 C39.232,49.915 39.011,49.999 38.790,49.999 C38.570,49.999 38.349,49.915 38.181,49.747 L35.206,46.780 C32.121,48.288 28.655,49.139 24.994,49.139 C21.333,49.139 17.867,48.288 14.782,46.780 L11.807,49.747 C11.639,49.915 11.419,49.999 11.198,49.999 C10.977,49.999 10.756,49.915 10.588,49.747 C10.251,49.411 10.251,48.867 10.588,48.531 L13.199,45.926 C6.332,41.883 1.713,34.430 1.713,25.917 C1.713,19.673 4.201,13.999 8.236,9.822 L6.791,8.380 L3.259,11.903 C3.098,12.065 2.878,12.155 2.649,12.155 C2.421,12.155 2.202,12.065 2.040,11.903 C-0.691,9.180 -0.691,4.748 2.040,2.025 C4.770,-0.698 9.213,-0.698 11.943,2.025 C12.105,2.186 12.195,2.405 12.195,2.634 C12.195,2.862 12.105,3.080 11.943,3.241 L8.010,7.164 L9.476,8.626 C13.598,4.941 19.038,2.695 24.995,2.695 C30.952,2.695 36.392,4.941 40.514,8.626 L41.979,7.164 L38.046,3.241 C37.884,3.081 37.794,2.862 37.794,2.634 C37.794,2.405 37.884,2.187 38.046,2.025 C40.776,-0.698 45.219,-0.698 47.949,2.025 C50.680,4.748 50.680,9.180 47.949,11.903 ZM10.064,2.683 C8.004,1.211 5.109,1.396 3.259,3.241 C1.408,5.087 1.222,7.974 2.699,10.029 L10.064,2.683 ZM24.994,4.415 C13.108,4.415 3.437,14.061 3.437,25.917 C3.437,37.773 13.108,47.419 24.994,47.419 C36.881,47.419 46.551,37.773 46.551,25.917 C46.551,14.061 36.880,4.415 24.994,4.415 ZM46.729,3.241 C44.879,1.395 41.984,1.210 39.924,2.683 L47.289,10.030 C48.766,7.974 48.580,5.087 46.729,3.241 ZM42.186,35.760 C42.179,35.776 42.179,35.793 42.170,35.808 C42.158,35.829 42.140,35.845 42.126,35.864 C40.393,38.822 37.915,41.291 34.948,43.016 C34.933,43.026 34.926,43.040 34.911,43.049 C34.889,43.062 34.865,43.067 34.842,43.077 C31.938,44.741 28.578,45.699 24.995,45.699 C21.412,45.699 18.052,44.741 15.148,43.077 C15.125,43.067 15.101,43.062 15.079,43.049 C15.064,43.040 15.056,43.026 15.042,43.016 C12.075,41.291 9.597,38.821 7.863,35.864 C7.850,35.845 7.832,35.829 7.819,35.808 C7.811,35.792 7.812,35.776 7.804,35.760 C6.128,32.859 5.163,29.499 5.163,25.917 C5.163,22.334 6.128,18.975 7.804,16.073 C7.811,16.058 7.811,16.040 7.819,16.026 C7.828,16.011 7.843,16.003 7.852,15.989 C9.585,13.022 12.068,10.546 15.042,8.817 C15.056,8.808 15.064,8.793 15.079,8.785 C15.093,8.775 15.111,8.776 15.126,8.768 C18.035,7.096 21.404,6.134 24.995,6.134 C28.586,6.134 31.955,7.096 34.864,8.768 C34.879,8.776 34.896,8.776 34.911,8.785 C34.926,8.793 34.934,8.808 34.948,8.817 C37.921,10.546 40.404,13.022 42.138,15.989 C42.146,16.003 42.161,16.011 42.170,16.026 C42.179,16.041 42.178,16.058 42.186,16.073 C43.862,18.974 44.827,22.334 44.827,25.917 C44.827,29.499 43.862,32.858 42.186,35.760 ZM41.073,17.649 L40.358,18.061 C40.222,18.139 40.073,18.176 39.928,18.176 C39.629,18.176 39.341,18.021 39.180,17.746 C38.942,17.335 39.084,16.808 39.496,16.571 L40.208,16.161 C38.804,13.990 36.950,12.140 34.773,10.740 L34.362,11.450 C34.202,11.725 33.912,11.880 33.614,11.880 C33.468,11.880 33.320,11.843 33.184,11.765 C32.772,11.527 32.630,11.002 32.868,10.590 L33.281,9.877 C31.037,8.719 28.522,8.024 25.856,7.899 L25.856,8.715 C25.856,9.191 25.469,9.575 24.993,9.575 C24.517,9.575 24.131,9.191 24.131,8.715 L24.131,7.899 C21.465,8.025 18.950,8.719 16.705,9.877 L17.118,10.590 C17.356,11.001 17.215,11.527 16.803,11.765 C16.666,11.843 16.518,11.880 16.372,11.880 C16.074,11.880 15.785,11.725 15.625,11.450 L15.213,10.740 C13.037,12.140 11.182,13.990 9.779,16.161 L10.491,16.573 C10.903,16.810 11.044,17.336 10.806,17.748 C10.647,18.023 10.357,18.178 10.059,18.178 C9.913,18.178 9.765,18.141 9.628,18.062 L8.914,17.650 C7.752,19.888 7.057,22.398 6.930,25.057 L7.750,25.057 C8.226,25.057 8.613,25.442 8.613,25.918 C8.613,26.393 8.226,26.778 7.750,26.778 L6.932,26.778 C7.059,29.436 7.754,31.946 8.915,34.185 L9.630,33.773 C10.043,33.533 10.569,33.676 10.808,34.088 C11.046,34.499 10.905,35.025 10.493,35.262 L9.780,35.673 C11.184,37.843 13.038,39.694 15.215,41.094 L15.626,40.383 C15.864,39.973 16.390,39.831 16.804,40.069 C17.216,40.306 17.358,40.831 17.120,41.243 L16.707,41.956 C18.951,43.115 21.467,43.809 24.133,43.935 L24.133,43.118 C24.133,42.643 24.519,42.258 24.995,42.258 C25.471,42.258 25.857,42.643 25.857,43.118 L25.857,43.935 C28.523,43.808 31.039,43.115 33.283,41.956 L32.870,41.243 C32.632,40.832 32.773,40.306 33.186,40.069 C33.598,39.830 34.125,39.972 34.364,40.383 L34.775,41.094 C36.952,39.693 38.806,37.843 40.208,35.671 L39.496,35.261 C39.084,35.023 38.942,34.498 39.180,34.086 C39.418,33.675 39.944,33.532 40.358,33.771 L41.073,34.183 C42.234,31.945 42.929,29.435 43.056,26.776 L42.238,26.776 C41.762,26.776 41.375,26.391 41.375,25.916 C41.375,25.440 41.762,25.056 42.238,25.056 L43.056,25.056 C42.929,22.397 42.234,19.888 41.073,17.649 ZM34.479,26.777 L28.321,26.777 C27.935,28.256 26.596,29.357 24.994,29.357 C23.092,29.357 21.545,27.814 21.545,25.917 C21.545,24.318 22.649,22.983 24.132,22.599 L24.132,13.876 C24.132,13.400 24.518,13.016 24.994,13.016 C25.470,13.016 25.856,13.400 25.856,13.876 L25.856,22.599 C27.063,22.912 28.007,23.853 28.321,25.057 L34.479,25.057 C34.956,25.057 35.341,25.441 35.341,25.917 C35.341,26.392 34.955,26.777 34.479,26.777 ZM24.994,24.197 C24.043,24.197 23.270,24.968 23.270,25.917 C23.270,26.865 24.043,27.637 24.994,27.637 C25.945,27.637 26.719,26.865 26.719,25.917 C26.719,24.968 25.945,24.197 24.994,24.197 Z"/>
</svg>