<svg 
 xmlns="http://www.w3.org/2000/svg"
 xmlns:xlink="http://www.w3.org/1999/xlink"
 width="20px" height="20px">
<defs>
<linearGradient id="PSgrad_0" x1="0%" x2="70.711%" y1="70.711%" y2="0%">
  <stop offset="0%" stop-color="rgb(254,80,128)" stop-opacity="1" />
  <stop offset="100%" stop-color="rgb(248,101,78)" stop-opacity="1" />
</linearGradient>

</defs>
<path fill-rule="evenodd"  fill="rgb(255, 255, 255)"
 d="M19.689,0.288 C19.298,-0.103 18.666,-0.103 18.276,0.288 L9.989,8.581 L1.703,0.288 C1.313,-0.103 0.680,-0.103 0.290,0.288 C-0.100,0.679 -0.100,1.312 0.290,1.703 L8.576,9.996 L0.290,18.290 C-0.100,18.681 -0.100,19.315 0.290,19.704 C0.485,19.899 0.741,19.998 0.997,19.998 C1.252,19.998 1.508,19.899 1.703,19.704 L9.989,11.412 L18.276,19.704 C18.471,19.899 18.727,19.998 18.982,19.998 C19.238,19.998 19.494,19.899 19.689,19.704 C20.079,19.315 20.079,18.681 19.689,18.290 L11.402,9.996 L19.689,1.703 C20.079,1.312 20.079,0.679 19.689,0.288 Z"/>
<path fill="url(#PSgrad_0)"
 d="M19.689,0.288 C19.298,-0.103 18.666,-0.103 18.276,0.288 L9.989,8.581 L1.703,0.288 C1.313,-0.103 0.680,-0.103 0.290,0.288 C-0.100,0.679 -0.100,1.312 0.290,1.703 L8.576,9.996 L0.290,18.290 C-0.100,18.681 -0.100,19.315 0.290,19.704 C0.485,19.899 0.741,19.998 0.997,19.998 C1.252,19.998 1.508,19.899 1.703,19.704 L9.989,11.412 L18.276,19.704 C18.471,19.899 18.727,19.998 18.982,19.998 C19.238,19.998 19.494,19.899 19.689,19.704 C20.079,19.315 20.079,18.681 19.689,18.290 L11.402,9.996 L19.689,1.703 C20.079,1.312 20.079,0.679 19.689,0.288 Z"/>
</svg>