<?xml version="1.0" encoding="UTF-8"?>
<!DOCTYPE svg PUBLIC "-//W3C//DTD SVG 1.1//EN" "http://www.w3.org/Graphics/SVG/1.1/DTD/svg11.dtd">
<!-- Creator: CorelDRAW 2020 (64-Bit) -->
<svg xmlns="http://www.w3.org/2000/svg" xml:space="preserve" width="54px" height="54px" version="1.1" style="shape-rendering:geometricPrecision; text-rendering:geometricPrecision; image-rendering:optimizeQuality; fill-rule:evenodd; clip-rule:evenodd"
viewBox="0 0 54 54"
 xmlns:xlink="http://www.w3.org/1999/xlink"
 xmlns:xodm="http://www.corel.com/coreldraw/odm/2003">
 <defs>
  <style type="text/css">
   <![CDATA[
    .fil0 {fill:#7D97F4;fill-rule:nonzero}
   ]]>
  </style>
 </defs>
 <g id="Слой_x0020_1">
  <metadata id="CorelCorpID_0Corel-Layer"/>
  <g id="_870247376">
   <path class="fil0" d="M48.26 15c-0.19,-0.97 -0.62,-1.86 -1.22,-2.59 -0.13,-0.16 -0.26,-0.3 -0.41,-0.45 -1.06,-1.07 -2.56,-1.73 -4.19,-1.73l-30.88 0c-1.63,0 -3.12,0.66 -4.19,1.73 -0.15,0.15 -0.28,0.29 -0.41,0.45 -0.6,0.73 -1.03,1.62 -1.21,2.59 -0.08,0.38 -0.12,0.76 -0.12,1.16l0 21.69c0,0.83 0.18,1.63 0.49,2.35 0.29,0.69 0.72,1.31 1.25,1.84 0.13,0.13 0.26,0.25 0.4,0.37 1.03,0.85 2.35,1.36 3.79,1.36l30.88 0c1.44,0 2.77,-0.51 3.78,-1.36 0.15,-0.12 0.28,-0.24 0.41,-0.37 0.53,-0.53 0.96,-1.15 1.25,-1.84l0 -0.01c0.32,-0.72 0.49,-1.51 0.49,-2.34l0 -21.69c0,-0.4 -0.04,-0.78 -0.11,-1.16zm-38.75 -0.89c0.53,-0.53 1.24,-0.85 2.05,-0.85l30.88 0c0.81,0 1.52,0.32 2.05,0.85 0.09,0.09 0.18,0.2 0.26,0.3l-16.19 14.11c-0.45,0.39 -1,0.58 -1.56,0.58 -0.56,0 -1.11,-0.19 -1.56,-0.58l-16.18 -14.11c0.07,-0.11 0.16,-0.21 0.25,-0.3zm-0.85 23.74l0 -20.31 11.72 10.22 -11.71 10.21c-0.01,-0.04 -0.01,-0.08 -0.01,-0.12zm33.78 2.89l-30.88 0c-0.53,0 -1.02,-0.14 -1.44,-0.38l12.36 -10.77 1.15 1.01c0.97,0.84 2.17,1.26 3.37,1.26 1.2,0 2.41,-0.42 3.38,-1.26l1.15 -1.01 12.35 10.77c-0.42,0.24 -0.91,0.38 -1.44,0.38zm2.9 -2.89c0,0.04 0,0.08 -0.01,0.12l-11.71 -10.2 11.72 -10.22 0 20.3z"/>
  </g>
 </g>
</svg>
