<?xml version="1.0" encoding="UTF-8"?>
<!DOCTYPE svg PUBLIC "-//W3C//DTD SVG 1.1//EN" "http://www.w3.org/Graphics/SVG/1.1/DTD/svg11.dtd">
<!-- Creator: CorelDRAW 2020 (64-Bit) -->
<svg xmlns="http://www.w3.org/2000/svg" xml:space="preserve" width="56px" height="54px" version="1.1" style="shape-rendering:geometricPrecision; text-rendering:geometricPrecision; image-rendering:optimizeQuality; fill-rule:evenodd; clip-rule:evenodd"
viewBox="0 0 56 54.19"
 xmlns:xlink="http://www.w3.org/1999/xlink"
 xmlns:xodm="http://www.corel.com/coreldraw/odm/2003">
 <defs>
  <style type="text/css">
   <![CDATA[
    .fil0 {fill:#7D97F4}
   ]]>
  </style>
 </defs>
 <g id="Слой_x0020_1">
  <metadata id="CorelCorpID_0Corel-Layer"/>
  <path class="fil0" d="M41.71 6.44c0.12,0.04 0.25,0.08 0.37,0.12l2.82 0.94c1.08,0.36 2.03,0.68 2.78,1.03 0.82,0.38 1.56,0.86 2.13,1.66 0.57,0.79 0.8,1.65 0.9,2.54 0.1,0.83 0.1,1.83 0.1,2.97l0 19.21c0,1.63 0,3.01 -0.13,4.1 -0.13,1.13 -0.43,2.25 -1.25,3.15 -0.49,0.54 -1.09,0.97 -1.75,1.26 -1.11,0.5 -2.27,0.42 -3.38,0.19 -1.08,-0.22 -2.38,-0.66 -3.93,-1.18l-0.1 -0.03c-2.63,-0.87 -3.52,-1.14 -4.4,-1.11 -0.34,0.01 -0.69,0.05 -1.03,0.13 -0.85,0.2 -1.64,0.7 -3.94,2.24l-3.23 2.15c-0.11,0.08 -0.22,0.15 -0.33,0.22 -2.48,1.66 -4.21,2.81 -6.23,3.08 -2.02,0.27 -3.99,-0.39 -6.82,-1.33 -0.12,-0.04 -0.25,-0.08 -0.37,-0.13l-2.82 -0.93c-1.08,-0.37 -2.03,-0.68 -2.78,-1.03 -0.82,-0.38 -1.56,-0.87 -2.13,-1.66 -0.57,-0.79 -0.8,-1.65 -0.9,-2.55 -0.1,-0.82 -0.1,-1.82 -0.1,-2.96l0 -19.21c0,-1.64 0,-3.02 0.13,-4.11 0.13,-1.13 0.43,-2.25 1.25,-3.15 0.49,-0.53 1.09,-0.96 1.75,-1.26 1.11,-0.49 2.27,-0.42 3.38,-0.19 1.08,0.23 2.38,0.66 3.93,1.18l0.1 0.03c2.63,0.88 3.52,1.15 4.4,1.12 0.34,-0.01 0.69,-0.06 1.03,-0.14 0.85,-0.2 1.64,-0.7 3.94,-2.23l3.23 -2.16c0.11,-0.07 0.22,-0.14 0.33,-0.22 2.48,-1.65 4.21,-2.81 6.23,-3.08 2.02,-0.27 3.99,0.39 6.82,1.34zm-4.94 2.2l0 29.18c1.25,0.13 2.57,0.58 4.31,1.16 0.1,0.03 0.2,0.06 0.3,0.09 1.67,0.56 2.78,0.93 3.63,1.11 0.83,0.17 1.12,0.09 1.25,0.04 0.22,-0.1 0.42,-0.25 0.58,-0.42 0.09,-0.11 0.26,-0.35 0.35,-1.2 0.1,-0.86 0.11,-2.03 0.11,-3.8l0 -19.01c0,-1.26 0,-2.06 -0.07,-2.66 -0.07,-0.56 -0.17,-0.77 -0.26,-0.89 -0.1,-0.13 -0.26,-0.3 -0.77,-0.53 -0.55,-0.26 -1.3,-0.51 -2.5,-0.91l-2.73 -0.91c-2.07,-0.69 -3.3,-1.08 -4.2,-1.25zm-3.51 29.6l0 -28.83c-0.73,0.42 -1.66,1.03 -2.98,1.91l-3.23 2.16c-0.09,0.06 -0.18,0.11 -0.26,0.17 -1.61,1.07 -2.81,1.87 -4.05,2.32l0 28.84c0.73,-0.42 1.66,-1.04 2.98,-1.92l3.23 -2.15c0.09,-0.06 0.18,-0.12 0.26,-0.17 1.61,-1.08 2.81,-1.88 4.05,-2.33zm-14.03 7.33l0 -29.17c-1.25,-0.14 -2.57,-0.58 -4.31,-1.16 -0.1,-0.03 -0.2,-0.07 -0.3,-0.1 -1.67,-0.56 -2.78,-0.93 -3.63,-1.1 -0.83,-0.18 -1.12,-0.1 -1.25,-0.04 -0.22,0.1 -0.42,0.24 -0.58,0.42 -0.09,0.1 -0.26,0.35 -0.35,1.19 -0.1,0.86 -0.11,2.03 -0.11,3.8l0 19.01c0,1.26 0,2.06 0.07,2.67 0.07,0.55 0.17,0.76 0.26,0.89 0.1,0.13 0.26,0.29 0.77,0.53 0.55,0.25 1.3,0.51 2.5,0.91l2.73 0.9c2.07,0.7 3.3,1.09 4.2,1.25z"/>
 </g>
</svg>
