<svg 
 xmlns="http://www.w3.org/2000/svg"
 xmlns:xlink="http://www.w3.org/1999/xlink"
 width="51px" height="51px">
<path fill-rule="evenodd"  fill="rgb(251, 36, 117)"
 d="M48.854,24.661 C48.769,24.671 48.695,24.682 48.610,24.682 C47.923,24.682 47.320,24.196 47.204,23.499 C46.368,18.578 44.041,14.089 40.466,10.519 C36.891,6.960 32.396,4.626 27.468,3.792 C26.685,3.655 26.167,2.926 26.294,2.145 C26.431,1.374 27.161,0.845 27.933,0.983 C33.454,1.923 38.478,4.521 42.476,8.513 C46.474,12.505 49.076,17.521 50.017,23.034 C50.155,23.805 49.626,24.544 48.854,24.661 ZM27.542,10.055 C30.894,10.625 33.951,12.209 36.373,14.628 C38.795,17.046 40.382,20.098 40.953,23.446 C41.080,24.228 40.562,24.967 39.779,25.094 C39.694,25.104 39.620,25.115 39.536,25.115 C38.848,25.115 38.245,24.629 38.129,23.932 C37.653,21.165 36.352,18.651 34.342,16.645 C32.333,14.638 29.816,13.329 27.045,12.864 C26.262,12.737 25.754,11.987 25.892,11.216 C26.029,10.445 26.759,9.928 27.542,10.055 ZM18.065,19.465 C17.282,20.257 16.478,21.080 15.611,21.872 C16.256,23.298 17.145,24.703 18.467,26.371 C21.196,29.719 24.041,32.307 27.171,34.292 C27.478,34.482 27.838,34.662 28.219,34.852 C28.483,34.989 28.758,35.127 29.033,35.275 L32.375,31.948 C33.443,30.881 34.692,30.321 35.992,30.321 C37.304,30.321 38.541,30.892 39.567,31.958 L45.374,37.777 C46.442,38.834 47.003,40.090 47.003,41.400 C47.003,42.699 46.453,43.966 45.406,45.054 C44.951,45.529 44.485,45.983 44.031,46.416 C43.364,47.061 42.730,47.663 42.180,48.328 C42.169,48.349 42.148,48.360 42.137,48.381 C40.530,50.123 38.478,51.000 36.035,51.000 C35.823,51.000 35.590,50.989 35.368,50.979 C31.741,50.746 28.493,49.384 26.061,48.233 C19.694,45.160 14.120,40.798 9.487,35.275 C5.669,30.691 3.110,26.414 1.396,21.799 C0.698,19.919 -0.211,17.046 0.042,13.962 C0.212,12.051 0.984,10.403 2.337,9.051 L5.934,5.429 C5.944,5.418 5.944,5.418 5.955,5.408 C7.012,4.394 8.260,3.855 9.551,3.855 C10.841,3.855 12.068,4.394 13.094,5.408 C13.781,6.041 14.448,6.717 15.082,7.372 C15.400,7.710 15.738,8.048 16.066,8.375 L18.953,11.259 C21.175,13.476 21.175,16.349 18.953,18.567 C18.657,18.863 18.361,19.169 18.065,19.465 ZM16.944,13.276 L14.056,10.393 C13.718,10.044 13.380,9.706 13.052,9.368 C12.406,8.703 11.793,8.080 11.148,7.478 C11.137,7.467 11.127,7.457 11.116,7.446 C10.778,7.108 10.238,6.707 9.572,6.707 C9.032,6.707 8.482,6.971 7.964,7.457 L4.358,11.058 C3.480,11.935 3.004,12.959 2.898,14.195 C2.739,16.127 3.099,18.176 4.083,20.806 C5.680,25.115 8.091,29.128 11.698,33.469 C16.066,38.675 21.323,42.783 27.309,45.677 C29.498,46.723 32.417,47.948 35.559,48.148 C35.717,48.159 35.887,48.159 36.045,48.159 C37.695,48.159 38.954,47.620 40.022,46.480 C40.678,45.709 41.376,45.022 42.063,44.367 C42.518,43.924 42.941,43.523 43.354,43.079 C44.433,41.960 44.433,40.851 43.343,39.773 L37.515,33.954 C37.505,33.944 37.505,33.944 37.494,33.933 C37.166,33.574 36.627,33.162 35.971,33.162 C35.305,33.162 34.734,33.595 34.374,33.954 L30.757,37.566 C30.577,37.746 30.027,38.295 29.149,38.295 C28.800,38.295 28.462,38.210 28.102,38.031 C28.060,38.010 28.018,37.978 27.975,37.957 C27.669,37.767 27.309,37.587 26.928,37.397 C26.505,37.186 26.061,36.964 25.627,36.690 C22.232,34.546 19.154,31.747 16.235,28.156 L16.225,28.146 C14.617,26.108 13.559,24.397 12.808,22.580 C12.798,22.548 12.787,22.517 12.777,22.485 C12.586,21.883 12.417,20.996 13.327,20.088 C13.337,20.067 13.358,20.056 13.380,20.035 C14.300,19.211 15.146,18.366 16.034,17.458 C16.341,17.162 16.637,16.856 16.944,16.550 C18.065,15.430 18.065,14.395 16.944,13.276 Z"/>
</svg>