<?xml version="1.0" encoding="UTF-8"?>
<!DOCTYPE svg PUBLIC "-//W3C//DTD SVG 1.1//EN" "http://www.w3.org/Graphics/SVG/1.1/DTD/svg11.dtd">
<!-- Creator: CorelDRAW 2020 (64-Bit) -->
<svg xmlns="http://www.w3.org/2000/svg" xml:space="preserve" width="54px" height="54px" version="1.1" style="shape-rendering:geometricPrecision; text-rendering:geometricPrecision; image-rendering:optimizeQuality; fill-rule:evenodd; clip-rule:evenodd"
viewBox="0 0 54 54"
 xmlns:xlink="http://www.w3.org/1999/xlink"
 xmlns:xodm="http://www.corel.com/coreldraw/odm/2003">
 <defs>
  <style type="text/css">
   <![CDATA[
    .fil0 {fill:#7D97F4}
   ]]>
  </style>
 </defs>
 <g id="Слой_x0020_1">
  <metadata id="CorelCorpID_0Corel-Layer"/>
  <path class="fil0" d="M49.24 26.2c-0.08,0.01 -0.15,0.02 -0.23,0.02 -0.65,0 -1.23,-0.46 -1.34,-1.13 -0.79,-4.68 -3.01,-8.96 -6.41,-12.36 -3.41,-3.39 -7.69,-5.61 -12.39,-6.41 -0.74,-0.13 -1.23,-0.82 -1.11,-1.57 0.13,-0.73 0.82,-1.23 1.56,-1.1 5.26,0.89 10.04,3.37 13.85,7.17 3.81,3.8 6.29,8.58 7.18,13.83 0.13,0.74 -0.37,1.44 -1.11,1.55zm-20.29 -13.91c3.19,0.54 6.1,2.05 8.41,4.35 2.3,2.31 3.82,5.21 4.36,8.4 0.12,0.75 -0.37,1.45 -1.12,1.57 -0.08,0.01 -0.15,0.02 -0.23,0.02 -0.66,0 -1.23,-0.46 -1.34,-1.12 -0.45,-2.64 -1.69,-5.03 -3.61,-6.94 -1.91,-1.92 -4.31,-3.16 -6.95,-3.61 -0.74,-0.12 -1.23,-0.83 -1.1,-1.57 0.13,-0.73 0.83,-1.22 1.58,-1.1zm-9.03 8.96c-0.75,0.76 -1.51,1.54 -2.34,2.29 0.62,1.36 1.46,2.7 2.72,4.29 2.6,3.19 5.31,5.65 8.29,7.54 0.29,0.19 0.64,0.36 1,0.54 0.25,0.13 0.51,0.26 0.78,0.4l3.18 -3.17c1.02,-1.01 2.21,-1.55 3.44,-1.55 1.25,0 2.43,0.55 3.41,1.56l5.53 5.54c1.02,1.01 1.55,2.21 1.55,3.45 0,1.24 -0.52,2.45 -1.52,3.49 -0.43,0.45 -0.88,0.88 -1.31,1.29 -0.63,0.62 -1.24,1.19 -1.76,1.82 -0.01,0.02 -0.03,0.03 -0.04,0.05 -1.53,1.66 -3.49,2.5 -5.82,2.5 -0.2,0 -0.42,-0.01 -0.63,-0.02 -3.46,-0.22 -6.55,-1.52 -8.87,-2.62 -6.06,-2.92 -11.37,-7.08 -15.78,-12.34 -3.64,-4.37 -6.08,-8.44 -7.71,-12.84 -0.66,-1.79 -1.53,-4.52 -1.29,-7.46 0.16,-1.82 0.9,-3.39 2.19,-4.68l3.42 -3.45c0.01,-0.01 0.01,-0.01 0.02,-0.02 1.01,-0.96 2.2,-1.48 3.43,-1.48 1.23,0 2.4,0.52 3.37,1.48 0.66,0.61 1.29,1.25 1.9,1.87 0.3,0.33 0.62,0.65 0.93,0.96l2.75 2.75c2.12,2.11 2.12,4.84 0,6.96 -0.28,0.28 -0.56,0.57 -0.84,0.85zm-1.07 -5.89l-2.75 -2.75c-0.32,-0.33 -0.64,-0.65 -0.96,-0.98 -0.61,-0.63 -1.2,-1.22 -1.81,-1.8 -0.01,-0.01 -0.02,-0.02 -0.03,-0.03 -0.32,-0.32 -0.84,-0.7 -1.47,-0.7 -0.52,0 -1.04,0.25 -1.53,0.71l-3.44 3.43c-0.83,0.84 -1.29,1.81 -1.39,2.99 -0.15,1.84 0.19,3.79 1.13,6.3 1.52,4.1 3.82,7.93 7.25,12.06 4.16,4.96 9.17,8.87 14.87,11.63 2.09,1 4.87,2.16 7.86,2.35 0.15,0.01 0.31,0.01 0.46,0.01 1.58,0 2.77,-0.51 3.79,-1.6 0.63,-0.73 1.29,-1.39 1.95,-2.01 0.43,-0.42 0.83,-0.8 1.23,-1.23 1.02,-1.06 1.02,-2.12 -0.01,-3.14l-5.56 -5.55c-0.01,-0.01 -0.01,-0.01 -0.02,-0.02 -0.31,-0.34 -0.82,-0.73 -1.45,-0.73 -0.63,0 -1.17,0.41 -1.52,0.75l-3.44 3.44c-0.17,0.17 -0.7,0.7 -1.53,0.7 -0.34,0 -0.66,-0.08 -1,-0.25 -0.04,-0.02 -0.08,-0.05 -0.12,-0.07 -0.29,-0.19 -0.64,-0.36 -1,-0.54 -0.4,-0.2 -0.83,-0.41 -1.24,-0.67 -3.23,-2.04 -6.16,-4.71 -8.95,-8.13l0 -0.01c-1.54,-1.94 -2.54,-3.57 -3.26,-5.3 -0.01,-0.03 -0.02,-0.06 -0.03,-0.09 -0.18,-0.58 -0.34,-1.42 0.53,-2.28 0,-0.02 0.02,-0.04 0.05,-0.06 0.87,-0.78 1.68,-1.59 2.52,-2.45 0.3,-0.28 0.58,-0.57 0.87,-0.86 1.07,-1.07 1.07,-2.06 0,-3.12z"/>
 </g>
</svg>
