<svg 
 xmlns="http://www.w3.org/2000/svg"
 xmlns:xlink="http://www.w3.org/1999/xlink"
 width="27px" height="27px">
<path fill-rule="evenodd"  fill="rgb(251, 66, 117)"
 d="M13.500,26.994 C6.056,26.994 -0.000,20.938 -0.000,13.494 C-0.000,6.051 6.056,-0.006 13.500,-0.006 C13.803,-0.006 14.049,0.240 14.049,0.545 C14.049,0.846 13.803,1.093 13.500,1.093 C6.662,1.093 1.099,6.656 1.099,13.494 C1.099,20.333 6.662,25.896 13.500,25.896 C20.338,25.896 25.901,20.333 25.901,13.494 C25.901,11.493 25.439,9.584 24.529,7.820 C23.660,6.135 22.393,4.647 20.865,3.516 C20.621,3.336 20.570,2.990 20.750,2.748 C20.931,2.503 21.275,2.452 21.519,2.634 C23.182,3.863 24.560,5.482 25.505,7.315 C26.483,9.211 27.000,11.347 27.000,13.494 C27.000,20.938 20.944,26.994 13.500,26.994 ZM13.614,18.289 C13.360,18.455 13.019,18.381 12.855,18.125 C12.690,17.871 12.764,17.530 13.019,17.366 L19.001,13.513 L10.866,8.670 L10.866,19.761 C10.866,20.065 10.620,20.312 10.317,20.312 C10.013,20.312 9.768,20.065 9.768,19.761 L9.768,7.703 C9.768,7.507 9.874,7.323 10.045,7.226 C10.218,7.129 10.428,7.132 10.598,7.230 L20.325,13.022 C20.489,13.119 20.590,13.295 20.594,13.484 C20.597,13.675 20.502,13.854 20.342,13.955 L13.614,18.289 Z"/>
</svg>