<svg 
 xmlns="http://www.w3.org/2000/svg"
 xmlns:xlink="http://www.w3.org/1999/xlink"
 width="18px" height="18px">
<path fill-rule="evenodd"  fill="rgb(129, 129, 129)"
 d="M17.889,17.359 L12.413,11.882 C13.550,10.620 14.249,8.954 14.249,7.125 C14.249,3.196 11.053,-0.000 7.125,-0.000 C3.196,-0.000 -0.000,3.196 -0.000,7.125 C-0.000,11.053 3.196,14.249 7.125,14.249 C8.954,14.249 10.619,13.550 11.882,12.413 L17.359,17.890 C17.432,17.963 17.528,17.999 17.624,17.999 C17.720,17.999 17.816,17.963 17.889,17.890 C18.036,17.743 18.036,17.506 17.889,17.359 ZM7.125,13.500 C3.610,13.500 0.750,10.640 0.750,7.125 C0.750,3.609 3.610,0.749 7.125,0.749 C10.639,0.749 13.499,3.609 13.499,7.125 C13.499,10.640 10.639,13.500 7.125,13.500 Z"/>
</svg>