<svg 
 xmlns="http://www.w3.org/2000/svg"
 xmlns:xlink="http://www.w3.org/1999/xlink"
 width="50px" height="50px">
<path fill-rule="evenodd"  fill="rgb(251, 66, 117)"
 d="M46.181,47.752 C46.147,48.150 45.777,48.456 45.370,48.422 L43.917,48.301 L43.917,49.259 C43.917,49.667 43.581,49.995 43.167,49.995 L6.354,49.995 C6.055,49.995 5.778,49.815 5.662,49.546 C5.579,49.354 5.623,49.162 5.597,48.963 L0.007,5.333 C-0.044,4.933 0.253,4.559 0.658,4.509 L11.610,3.159 L11.821,0.737 C11.855,0.337 12.225,0.030 12.632,0.065 L26.771,1.251 C26.815,1.254 26.856,1.262 26.897,1.273 L37.183,0.003 C37.594,-0.048 37.970,0.239 38.022,0.642 L38.222,2.211 L49.312,3.139 C49.510,3.157 49.693,3.248 49.822,3.397 C49.950,3.548 50.012,3.743 49.995,3.936 L46.181,47.752 ZM5.603,5.383 L1.590,5.878 L5.603,37.205 L5.603,5.383 ZM13.252,1.596 L13.132,2.971 L19.818,2.145 L13.252,1.596 ZM36.626,1.556 L12.374,4.548 L37.010,4.548 L36.626,1.556 ZM38.414,3.705 L38.522,4.548 L43.167,4.548 C43.581,4.548 43.917,4.877 43.917,5.285 L43.917,21.873 C43.917,22.278 43.581,22.610 43.167,22.610 C42.752,22.610 42.416,22.278 42.416,21.873 L42.416,6.020 L7.104,6.020 L7.104,48.524 L42.416,48.524 L42.416,25.308 C42.416,24.902 42.752,24.572 43.167,24.572 C43.581,24.572 43.917,24.902 43.917,25.308 L43.917,46.822 L44.750,46.894 L48.436,4.542 L38.414,3.705 ZM39.165,34.289 L31.963,34.289 C31.704,34.289 31.464,34.159 31.327,33.944 L30.053,31.944 C28.154,33.413 25.759,34.289 23.160,34.289 C17.009,34.289 12.006,29.381 12.006,23.346 C12.006,17.311 17.009,12.401 23.160,12.401 C23.574,12.401 23.910,12.730 23.910,13.137 L23.910,22.610 L33.563,22.610 C33.978,22.610 34.314,22.939 34.314,23.346 C34.314,26.291 33.120,28.972 31.183,30.940 L32.379,32.817 L39.165,32.817 C39.580,32.817 39.916,33.148 39.916,33.555 C39.916,33.961 39.580,34.289 39.165,34.289 ZM32.784,24.081 L23.160,24.081 C22.745,24.081 22.409,23.753 22.409,23.346 L22.409,13.901 C17.436,14.279 13.506,18.370 13.506,23.346 C13.506,28.569 17.837,32.817 23.160,32.817 C25.468,32.817 27.589,32.019 29.252,30.687 L27.325,27.661 C27.105,27.318 27.212,26.864 27.564,26.647 C27.915,26.431 28.378,26.536 28.598,26.883 L30.360,29.649 C31.729,28.145 32.617,26.211 32.784,24.081 ZM39.165,9.947 L35.565,9.947 L34.006,12.243 C36.165,14.239 37.515,17.071 37.515,20.204 C37.515,20.610 37.179,20.940 36.764,20.940 L26.361,20.940 C25.946,20.940 25.610,20.610 25.610,20.204 L25.610,9.996 C25.610,9.589 25.946,9.260 26.361,9.260 C28.776,9.260 31.014,10.016 32.841,11.303 L34.540,8.802 C34.679,8.597 34.913,8.474 35.164,8.474 L39.165,8.474 C39.580,8.474 39.916,8.803 39.916,9.210 C39.916,9.617 39.580,9.947 39.165,9.947 ZM32.587,14.331 C32.342,14.690 31.818,14.763 31.480,14.487 C31.191,14.249 31.129,13.822 31.338,13.514 L32.008,12.528 C30.609,11.535 28.930,10.897 27.111,10.761 L27.111,19.468 L35.985,19.468 C35.802,17.138 34.755,15.042 33.160,13.487 L32.587,14.331 ZM17.508,37.480 C17.508,37.887 17.172,38.216 16.757,38.216 L10.355,38.216 C9.941,38.216 9.605,37.887 9.605,37.480 C9.605,37.073 9.941,36.744 10.355,36.744 L16.757,36.744 C17.172,36.744 17.508,37.073 17.508,37.480 ZM10.355,40.670 L20.759,40.670 C21.173,40.670 21.509,41.000 21.509,41.407 C21.509,41.812 21.173,42.143 20.759,42.143 L10.355,42.143 C9.941,42.143 9.605,41.812 9.605,41.407 C9.605,41.000 9.941,40.670 10.355,40.670 ZM10.355,44.597 L13.556,44.597 C13.971,44.597 14.306,44.927 14.306,45.332 C14.306,45.740 13.971,46.070 13.556,46.070 L10.355,46.070 C9.941,46.070 9.605,45.740 9.605,45.332 C9.605,44.927 9.941,44.597 10.355,44.597 ZM26.361,38.216 L19.958,38.216 C19.544,38.216 19.208,37.887 19.208,37.480 C19.208,37.073 19.544,36.744 19.958,36.744 L26.361,36.744 C26.775,36.744 27.111,37.073 27.111,37.480 C27.111,37.887 26.775,38.216 26.361,38.216 ZM26.361,42.143 L23.960,42.143 C23.546,42.143 23.210,41.812 23.210,41.407 C23.210,41.000 23.546,40.670 23.960,40.670 L26.361,40.670 C26.775,40.670 27.111,41.000 27.111,41.407 C27.111,41.812 26.775,42.143 26.361,42.143 ZM16.757,44.597 L26.361,44.597 C26.775,44.597 27.111,44.927 27.111,45.332 C27.111,45.740 26.775,46.070 26.361,46.070 L16.757,46.070 C16.343,46.070 16.007,45.740 16.007,45.332 C16.007,44.927 16.343,44.597 16.757,44.597 Z"/>
</svg>