<svg 
 xmlns="http://www.w3.org/2000/svg"
 xmlns:xlink="http://www.w3.org/1999/xlink"
 width="50px" height="50px">
<path fill-rule="evenodd"  fill="rgb(251, 66, 117)"
 d="M46.875,49.995 L19.792,49.995 L19.792,47.913 L46.875,47.913 C47.450,47.913 47.917,47.446 47.917,46.871 L47.917,9.801 L41.667,3.552 L41.667,7.287 C41.667,7.862 42.133,8.329 42.708,8.329 L44.792,8.329 L44.792,10.412 L42.708,10.412 C40.982,10.412 39.583,9.013 39.583,7.287 L39.583,2.080 L26.042,2.080 L26.042,-0.003 L40.625,-0.003 C40.901,-0.003 41.166,0.105 41.361,0.301 L49.695,8.635 C49.890,8.829 50.000,9.095 50.000,9.371 L50.000,46.871 C50.000,48.596 48.601,49.995 46.875,49.995 ZM32.292,17.704 L32.292,15.621 L43.750,15.621 C44.325,15.621 44.792,16.088 44.792,16.662 L44.792,27.079 C44.792,27.654 44.325,28.120 43.750,28.120 L27.083,28.120 L27.083,26.037 L42.708,26.037 L42.708,17.704 L32.292,17.704 ZM44.792,38.539 L42.708,38.539 L42.708,36.454 L44.792,36.454 L44.792,38.539 ZM38.542,38.539 L38.542,36.454 L40.625,36.454 L40.625,38.539 L38.542,38.539 ZM23.958,31.246 L44.792,31.246 L44.792,33.330 L23.958,33.330 L23.958,31.246 ZM15.625,29.109 L15.625,33.521 C16.836,33.952 17.708,35.096 17.708,36.454 L17.708,46.871 C17.708,48.596 16.309,49.995 14.583,49.995 C12.857,49.995 11.458,48.596 11.458,46.871 L11.458,36.454 C11.458,35.096 12.331,33.952 13.542,33.521 L13.542,29.111 C5.976,28.574 -0.000,22.283 -0.000,14.579 C-0.000,6.525 6.529,-0.003 14.583,-0.003 C22.637,-0.003 29.167,6.525 29.167,14.579 C29.158,22.279 23.187,28.566 15.625,29.109 ZM13.542,46.871 C13.542,47.446 14.008,47.913 14.583,47.913 C15.159,47.913 15.625,47.446 15.625,46.871 L15.625,36.454 C15.625,35.879 15.159,35.412 14.583,35.412 C14.008,35.412 13.542,35.879 13.542,36.454 L13.542,46.871 ZM14.583,2.080 C7.680,2.080 2.083,7.676 2.083,14.579 C2.083,21.482 7.680,27.079 14.583,27.079 C21.487,27.079 27.083,21.482 27.083,14.579 C27.076,7.679 21.484,2.087 14.583,2.080 ZM14.583,22.913 C9.981,22.913 6.250,19.182 6.250,14.579 C6.250,9.977 9.981,6.245 14.583,6.245 C19.186,6.245 22.917,9.977 22.917,14.579 C22.912,19.180 19.184,22.907 14.583,22.913 ZM14.583,7.436 C10.638,7.436 7.440,10.635 7.440,14.579 C7.440,18.524 10.638,21.721 14.583,21.721 C18.528,21.721 21.726,18.524 21.726,14.579 C21.722,10.636 18.526,7.440 14.583,7.436 Z"/>
</svg>