<svg 
 xmlns="http://www.w3.org/2000/svg"
 xmlns:xlink="http://www.w3.org/1999/xlink"
 width="47px" height="50px">
<path fill-rule="evenodd"  fill="rgb(251, 66, 117)"
 d="M41.664,49.995 L5.335,49.995 C2.390,49.992 0.003,47.601 -0.000,44.650 L-0.000,19.948 C0.000,19.639 0.179,19.358 0.459,19.227 L9.082,11.898 L9.082,4.399 C9.085,1.968 11.051,-0.002 13.477,-0.004 L27.209,-0.004 C27.236,-0.004 27.263,-0.003 27.289,-0.001 L27.303,0.001 C27.333,-0.002 27.362,-0.004 27.393,-0.004 C27.609,-0.004 27.817,0.085 27.967,0.243 C27.969,0.245 27.972,0.247 27.974,0.249 L37.684,9.958 C37.834,10.108 37.918,10.311 37.918,10.521 L37.918,11.893 L46.588,19.250 C46.842,19.390 47.000,19.657 47.000,19.948 L47.000,44.650 C46.997,47.601 44.610,49.992 41.664,49.995 ZM9.082,13.986 L2.024,19.986 L9.082,25.975 L9.082,13.986 ZM28.187,2.711 L28.187,6.934 C28.189,8.487 29.444,9.744 30.993,9.746 L35.222,9.746 L28.187,2.711 ZM36.328,11.338 L30.993,11.338 C28.567,11.335 26.600,9.365 26.598,6.935 L26.598,1.588 L13.477,1.588 C11.929,1.591 10.673,2.848 10.672,4.399 L10.672,27.322 L21.086,36.158 C22.481,37.349 24.534,37.347 25.929,36.155 L36.328,27.317 L36.328,11.338 ZM37.918,13.981 L37.918,25.969 L44.976,19.969 L37.918,13.981 ZM45.411,21.690 L26.957,37.370 C24.971,39.069 22.046,39.069 20.058,37.373 L9.371,28.306 L9.371,28.305 L1.589,21.703 L1.589,44.650 C1.589,45.266 1.741,45.874 2.032,46.417 L12.795,35.386 C13.103,35.077 13.603,35.073 13.915,35.379 C14.226,35.685 14.234,36.183 13.932,36.498 L3.067,47.635 C3.718,48.134 4.516,48.403 5.335,48.403 L41.664,48.403 C42.482,48.403 43.278,48.135 43.928,47.638 L33.004,36.501 C32.696,36.186 32.701,35.684 33.013,35.375 C33.327,35.068 33.830,35.072 34.138,35.384 L44.965,46.422 C45.259,45.877 45.411,45.268 45.411,44.650 L45.411,21.690 ZM20.293,25.673 L21.803,27.667 C22.635,28.776 22.416,30.349 21.313,31.187 C20.210,32.024 18.639,31.813 17.799,30.711 L15.240,27.331 C14.333,27.201 13.565,26.597 13.225,25.746 L11.769,22.087 C11.248,20.773 11.885,19.285 13.194,18.759 L17.139,17.181 L23.894,10.739 C24.085,10.556 24.354,10.481 24.611,10.537 C24.869,10.594 25.083,10.775 25.180,11.022 L26.716,14.874 C28.249,14.455 29.852,15.255 30.441,16.734 C31.030,18.214 30.418,19.901 29.019,20.654 L30.553,24.507 C30.651,24.752 30.622,25.031 30.473,25.249 C30.325,25.468 30.079,25.599 29.815,25.599 L20.490,25.594 L20.293,25.673 ZM19.065,29.749 C19.263,30.017 19.589,30.157 19.919,30.115 C20.249,30.077 20.531,29.860 20.659,29.553 C20.787,29.245 20.740,28.894 20.536,28.630 L18.762,26.285 L16.983,26.998 L19.065,29.749 ZM17.132,18.899 L13.784,20.239 C13.545,20.334 13.355,20.520 13.255,20.757 C13.153,20.991 13.150,21.257 13.246,21.496 L14.701,25.155 C14.899,25.650 15.460,25.891 15.955,25.694 L19.304,24.353 L17.132,18.899 ZM29.067,17.736 C29.009,17.181 28.656,16.701 28.144,16.480 C27.882,16.368 27.595,16.330 27.314,16.374 L28.422,19.155 C28.878,18.835 29.124,18.291 29.067,17.736 ZM28.643,24.006 L25.543,16.225 C25.537,16.212 25.531,16.201 25.525,16.186 C25.519,16.172 25.515,16.158 25.510,16.144 L24.140,12.705 L18.513,18.069 L20.875,24.002 L28.643,24.006 ZM31.091,15.525 L33.135,14.501 C33.527,14.303 34.005,14.464 34.201,14.856 C34.398,15.249 34.238,15.728 33.846,15.925 L31.803,16.948 C31.410,17.145 30.932,16.985 30.736,16.593 C30.540,16.199 30.699,15.720 31.091,15.525 ZM32.006,17.721 L33.709,17.950 C34.139,18.012 34.439,18.411 34.381,18.844 C34.324,19.275 33.930,19.580 33.499,19.529 L31.796,19.302 C31.511,19.266 31.268,19.082 31.157,18.817 C31.047,18.553 31.088,18.247 31.263,18.021 C31.439,17.795 31.723,17.680 32.006,17.721 ZM30.756,14.864 C30.479,15.203 29.978,15.254 29.638,14.976 C29.298,14.696 29.249,14.196 29.526,13.855 L30.548,12.603 C30.826,12.264 31.327,12.215 31.666,12.492 C32.006,12.769 32.056,13.272 31.778,13.612 L30.756,14.864 Z"/>
</svg>