<svg 
 xmlns="http://www.w3.org/2000/svg"
 xmlns:xlink="http://www.w3.org/1999/xlink"
 width="44px" height="50px">
<path fill-rule="evenodd"  fill="rgb(251, 66, 117)"
 d="M33.407,31.448 C33.001,31.448 32.617,31.366 32.259,31.232 C31.730,32.310 30.623,33.061 29.333,33.061 C27.536,33.061 26.074,31.615 26.074,29.838 L26.074,7.258 C26.074,5.480 27.536,4.034 29.333,4.034 C30.623,4.034 31.730,4.783 32.259,5.863 C32.617,5.730 33.001,5.646 33.407,5.646 C35.205,5.646 36.666,7.094 36.666,8.871 C36.666,9.251 36.588,9.609 36.466,9.947 C38.007,10.523 39.111,11.986 39.111,13.709 C39.111,14.372 38.933,14.991 38.644,15.546 C39.866,16.010 40.741,17.176 40.741,18.548 C40.741,19.920 39.866,21.087 38.644,21.551 C38.933,22.105 39.111,22.721 39.111,23.386 C39.111,25.110 38.007,26.573 36.466,27.149 C36.588,27.486 36.666,27.845 36.666,28.223 C36.666,30.002 35.205,31.448 33.407,31.448 ZM37.481,23.386 C37.481,22.053 36.385,20.967 35.037,20.967 C33.689,20.967 32.592,22.053 32.592,23.386 L30.963,23.386 C30.963,21.163 32.790,19.353 35.037,19.353 C35.957,19.353 36.798,19.670 37.481,20.182 L37.481,20.161 C38.380,20.161 39.111,19.436 39.111,18.548 C39.111,17.658 38.380,16.934 37.481,16.934 L37.481,16.913 C36.798,17.426 35.957,17.741 35.037,17.741 C32.790,17.741 30.963,15.932 30.963,13.709 L32.592,13.709 C32.592,15.044 33.689,16.129 35.037,16.129 C36.385,16.129 37.481,15.044 37.481,13.709 C37.481,12.527 36.619,11.545 35.485,11.334 C34.919,11.803 34.201,12.098 33.407,12.098 L33.407,10.485 C34.306,10.485 35.037,9.762 35.037,8.871 C35.037,7.983 34.306,7.258 33.407,7.258 C32.508,7.258 31.778,7.983 31.778,8.871 L30.148,8.871 C30.148,8.095 30.437,7.394 30.899,6.837 C30.710,6.154 30.084,5.646 29.333,5.646 C28.435,5.646 27.704,6.369 27.704,7.258 L27.704,29.838 C27.704,30.726 28.435,31.448 29.333,31.448 C30.084,31.448 30.710,30.943 30.899,30.259 C30.437,29.703 30.148,28.998 30.148,28.223 L31.778,28.223 C31.778,29.114 32.508,29.838 33.407,29.838 C34.306,29.838 35.037,29.114 35.037,28.223 C35.037,27.335 34.306,26.613 33.407,26.613 L33.407,24.998 C34.201,24.998 34.919,25.293 35.485,25.760 C36.619,25.551 37.481,24.568 37.481,23.386 ZM35.603,34.010 C34.412,34.790 33.461,35.855 32.805,37.093 L35.037,37.093 L35.037,38.707 L32.162,38.707 C32.008,39.229 31.893,39.765 31.835,40.318 L33.407,40.318 L33.407,41.933 L31.778,41.933 L31.778,44.350 C31.778,44.796 31.413,45.157 30.963,45.157 L30.148,45.157 C30.148,47.827 27.955,49.995 25.259,49.995 C22.563,49.995 20.370,47.827 20.370,45.157 L19.555,45.157 C19.106,45.157 18.740,44.796 18.740,44.350 L18.740,41.933 L17.111,41.933 L17.111,40.318 L18.676,40.318 C18.612,39.765 18.486,39.230 18.327,38.707 L15.481,38.707 L15.481,37.093 L17.677,37.093 C17.011,35.841 16.056,34.764 14.859,33.971 C9.440,30.389 6.325,24.402 6.528,17.956 L8.157,18.008 C7.972,23.892 10.816,29.359 15.764,32.632 C17.423,33.728 18.681,35.289 19.464,37.093 L31.020,37.093 C31.792,35.301 33.045,33.752 34.702,32.666 C39.504,29.516 42.370,24.239 42.370,18.548 C42.370,13.824 40.454,9.442 36.974,6.206 C33.497,2.972 28.945,1.353 24.163,1.648 L24.062,0.039 C29.296,-0.286 34.282,1.489 38.090,5.031 C41.845,8.523 44.000,13.450 44.000,18.548 C44.000,24.780 40.860,30.561 35.603,34.010 ZM25.259,48.383 C27.057,48.383 28.519,46.936 28.519,45.157 L22.000,45.157 C22.000,46.936 23.462,48.383 25.259,48.383 ZM20.370,43.544 L30.148,43.544 L30.148,41.933 L20.370,41.933 L20.370,43.544 ZM20.029,38.707 C20.163,39.231 20.250,39.771 20.305,40.318 L30.206,40.318 C30.255,39.772 30.330,39.231 30.460,38.707 L20.029,38.707 ZM24.444,29.838 C24.444,31.615 22.983,33.061 21.185,33.061 C19.895,33.061 18.788,32.310 18.260,31.232 C17.902,31.366 17.517,31.448 17.111,31.448 C15.313,31.448 13.852,30.002 13.852,28.223 C13.852,27.845 13.930,27.486 14.052,27.149 C12.511,26.573 11.407,25.110 11.407,23.386 C11.407,22.721 11.586,22.105 11.874,21.551 C10.652,21.087 9.778,19.920 9.778,18.548 C9.778,17.176 10.652,16.010 11.874,15.546 C11.586,14.991 11.407,14.372 11.407,13.709 C11.407,11.986 12.511,10.523 14.052,9.947 C13.930,9.609 13.852,9.251 13.852,8.871 C13.852,7.094 15.313,5.646 17.111,5.646 C17.517,5.646 17.902,5.730 18.260,5.863 C18.788,4.783 19.895,4.034 21.185,4.034 C22.983,4.034 24.444,5.480 24.444,7.258 L24.444,29.838 ZM22.815,7.258 C22.815,6.369 22.084,5.646 21.185,5.646 C20.435,5.646 19.808,6.154 19.619,6.837 C20.081,7.394 20.370,8.095 20.370,8.871 L18.740,8.871 C18.740,7.983 18.010,7.258 17.111,7.258 C16.212,7.258 15.481,7.983 15.481,8.871 C15.481,9.762 16.212,10.485 17.111,10.485 L17.111,12.098 C16.317,12.098 15.599,11.803 15.033,11.334 C13.899,11.545 13.037,12.527 13.037,13.709 C13.037,15.044 14.134,16.129 15.481,16.129 C16.829,16.129 17.926,15.044 17.926,13.709 L19.555,13.709 C19.555,15.932 17.728,17.741 15.481,17.741 C14.561,17.741 13.720,17.426 13.037,16.913 L13.037,16.934 C12.138,16.934 11.407,17.658 11.407,18.548 C11.407,19.436 12.138,20.161 13.037,20.161 L13.037,20.182 C13.720,19.670 14.561,19.353 15.481,19.353 C17.728,19.353 19.555,21.163 19.555,23.386 L17.926,23.386 C17.926,22.053 16.829,20.967 15.481,20.967 C14.134,20.967 13.037,22.053 13.037,23.386 C13.037,24.568 13.899,25.551 15.033,25.760 C15.599,25.293 16.317,24.998 17.111,24.998 L17.111,26.613 C16.212,26.613 15.481,27.335 15.481,28.223 C15.481,29.114 16.212,29.838 17.111,29.838 C18.010,29.838 18.740,29.114 18.740,28.223 L20.370,28.223 C20.370,28.998 20.081,29.703 19.619,30.259 C19.808,30.943 20.435,31.448 21.185,31.448 C22.084,31.448 22.815,30.726 22.815,29.838 L22.815,7.258 ZM13.852,5.646 C12.054,5.646 10.593,7.094 10.593,8.871 C10.593,9.317 10.228,9.678 9.778,9.678 C9.328,9.678 8.963,9.317 8.963,8.871 C8.963,7.094 7.501,5.646 5.704,5.646 C5.254,5.646 4.889,5.285 4.889,4.839 C4.889,4.394 5.254,4.034 5.704,4.034 C7.501,4.034 8.963,2.587 8.963,0.806 C8.963,0.363 9.328,0.003 9.778,0.003 C10.228,0.003 10.593,0.363 10.593,0.806 C10.593,2.587 12.054,4.034 13.852,4.034 C14.302,4.034 14.666,4.394 14.666,4.839 C14.666,5.285 14.302,5.646 13.852,5.646 ZM9.778,3.480 C9.416,4.018 8.947,4.482 8.403,4.839 C8.947,5.198 9.416,5.662 9.778,6.200 C10.140,5.662 10.608,5.198 11.152,4.839 C10.608,4.482 10.140,4.018 9.778,3.480 ZM5.704,8.871 C5.704,10.650 7.165,12.098 8.963,12.098 C9.413,12.098 9.778,12.457 9.778,12.902 C9.778,13.350 9.413,13.709 8.963,13.709 C7.165,13.709 5.704,15.157 5.704,16.934 C5.704,17.381 5.339,17.741 4.889,17.741 C4.439,17.741 4.074,17.381 4.074,16.934 C4.074,15.157 2.612,13.709 0.815,13.709 C0.365,13.709 -0.000,13.350 -0.000,12.902 C-0.000,12.457 0.365,12.098 0.815,12.098 C2.612,12.098 4.074,10.650 4.074,8.871 C4.074,8.427 4.439,8.066 4.889,8.066 C5.339,8.066 5.704,8.427 5.704,8.871 ZM3.514,12.902 C4.058,13.262 4.527,13.725 4.889,14.264 C5.251,13.725 5.719,13.262 6.263,12.902 C5.719,12.545 5.251,12.082 4.889,11.543 C4.526,12.082 4.058,12.545 3.514,12.902 Z"/>
</svg>