<?xml version="1.0" encoding="UTF-8"?>
<!DOCTYPE svg PUBLIC "-//W3C//DTD SVG 1.1//EN" "http://www.w3.org/Graphics/SVG/1.1/DTD/svg11.dtd">
<!-- Creator: CorelDRAW 2020 (64-Bit) -->
<svg xmlns="http://www.w3.org/2000/svg" xml:space="preserve" width="54px" height="54px" version="1.1" style="shape-rendering:geometricPrecision; text-rendering:geometricPrecision; image-rendering:optimizeQuality; fill-rule:evenodd; clip-rule:evenodd"
viewBox="0 0 54 54"
 xmlns:xlink="http://www.w3.org/1999/xlink"
 xmlns:xodm="http://www.corel.com/coreldraw/odm/2003">
 <defs>
  <style type="text/css">
   <![CDATA[
    .fil0 {fill:#7D97F4}
   ]]>
  </style>
 </defs>
 <g id="Слой_x0020_1">
  <metadata id="CorelCorpID_0Corel-Layer"/>
  <path class="fil0" d="M27 14.24c-7.05,0 -12.76,5.71 -12.76,12.76 0,7.05 5.71,12.76 12.76,12.76 7.05,0 12.76,-5.71 12.76,-12.76 0,-7.05 -5.71,-12.76 -12.76,-12.76zm-15.95 12.76c0,-8.82 7.13,-15.95 15.95,-15.95 8.82,0 15.95,7.13 15.95,15.95 0,8.82 -7.13,15.95 -15.95,15.95 -8.82,0 -15.95,-7.13 -15.95,-15.95zm15.67 -8.37c0.89,0 1.6,0.72 1.6,1.6l0 7.92 5.63 2.15c0.82,0.31 1.24,1.23 0.92,2.06 -0.31,0.82 -1.23,1.23 -2.06,0.92l-6.65 -2.54c-0.62,-0.23 -1.03,-0.82 -1.03,-1.49l0 -9.02c0,-0.88 0.72,-1.6 1.59,-1.6l0 0z"/>
 </g>
</svg>
