<svg 
 xmlns="http://www.w3.org/2000/svg"
 xmlns:xlink="http://www.w3.org/1999/xlink"
 width="100px" height="100px">
<path fill-rule="evenodd"  fill="rgb(255, 255, 255)"
 d="M50.000,99.989 C22.429,99.989 -0.000,77.558 -0.000,49.989 C-0.000,22.419 22.429,-0.009 50.000,-0.009 C51.122,-0.009 52.035,0.901 52.035,2.026 C52.035,3.144 51.122,4.060 50.000,4.060 C24.673,4.060 4.070,24.661 4.070,49.989 C4.070,75.317 24.673,95.919 50.000,95.919 C75.324,95.919 95.928,75.317 95.928,49.989 C95.928,42.576 94.220,35.508 90.848,28.971 C87.630,22.730 82.938,17.221 77.278,13.033 C76.375,12.367 76.183,11.086 76.852,10.189 C77.521,9.285 78.794,9.094 79.699,9.762 C85.858,14.315 90.963,20.312 94.464,27.103 C98.085,34.124 99.999,42.037 99.999,49.989 C99.999,77.558 77.569,99.989 50.000,99.989 ZM75.340,51.699 L50.423,67.755 C49.479,68.361 48.219,68.090 47.611,67.143 C47.001,66.201 47.276,64.938 48.219,64.331 L70.374,50.056 L40.245,32.121 L40.245,73.201 C40.245,74.324 39.334,75.236 38.212,75.236 C37.087,75.236 36.176,74.324 36.176,73.201 L36.176,28.541 C36.176,27.811 36.569,27.132 37.205,26.774 C37.843,26.411 38.623,26.421 39.251,26.789 L75.279,48.239 C75.884,48.597 76.259,49.250 76.273,49.951 C76.285,50.659 75.932,51.319 75.340,51.699 Z"/>
</svg>